<mxfile host="app.diagrams.net" modified="2024-01-04T10:44:46.061Z" agent="Mozilla/5.0 (Windows NT 10.0; Win64; x64) AppleWebKit/537.36 (KHTML, like Gecko) Chrome/120.0.0.0 Safari/537.36" etag="C884plDvBOtSFDvyQA9a" version="22.1.16" type="github">
  <diagram name="Страница — 1" id="uLFNteGTzECygVPLA__a">
    <mxGraphModel dx="1050" dy="565" grid="1" gridSize="10" guides="1" tooltips="1" connect="1" arrows="1" fold="1" page="1" pageScale="1" pageWidth="827" pageHeight="1169" math="0" shadow="0">
      <root>
        <mxCell id="0" />
        <mxCell id="1" parent="0" />
        <mxCell id="CAM8ANXRye3e2D8_DKDB-1" value="" style="image;aspect=fixed;perimeter=ellipsePerimeter;html=1;align=center;shadow=0;dashed=0;spacingTop=3;image=img/lib/active_directory/user_accounts.svg;" vertex="1" parent="1">
          <mxGeometry y="220" width="61.86" height="60" as="geometry" />
        </mxCell>
        <mxCell id="CAM8ANXRye3e2D8_DKDB-3" value="" style="rounded=0;whiteSpace=wrap;html=1;" vertex="1" parent="1">
          <mxGeometry x="61.86" y="98" width="610" height="365" as="geometry" />
        </mxCell>
        <mxCell id="CAM8ANXRye3e2D8_DKDB-4" value="" style="outlineConnect=0;dashed=0;verticalLabelPosition=bottom;verticalAlign=top;align=center;html=1;shape=mxgraph.aws3.api_gateway;fillColor=#D9A741;gradientColor=none;" vertex="1" parent="1">
          <mxGeometry x="120" y="203.5" width="80" height="93" as="geometry" />
        </mxCell>
        <mxCell id="CAM8ANXRye3e2D8_DKDB-5" value="Gateway" style="text;html=1;strokeColor=none;fillColor=none;align=center;verticalAlign=middle;whiteSpace=wrap;rounded=0;" vertex="1" parent="1">
          <mxGeometry x="120" y="300" width="60" height="30" as="geometry" />
        </mxCell>
        <mxCell id="CAM8ANXRye3e2D8_DKDB-6" value="" style="endArrow=classic;html=1;rounded=0;exitX=1;exitY=0.21;exitDx=0;exitDy=0;exitPerimeter=0;" edge="1" parent="1" source="CAM8ANXRye3e2D8_DKDB-4" target="CAM8ANXRye3e2D8_DKDB-7">
          <mxGeometry width="50" height="50" relative="1" as="geometry">
            <mxPoint x="390" y="350" as="sourcePoint" />
            <mxPoint x="440" y="300" as="targetPoint" />
          </mxGeometry>
        </mxCell>
        <mxCell id="CAM8ANXRye3e2D8_DKDB-11" value="" style="edgeStyle=orthogonalEdgeStyle;rounded=0;orthogonalLoop=1;jettySize=auto;html=1;entryX=0.4;entryY=0.13;entryDx=0;entryDy=0;entryPerimeter=0;" edge="1" parent="1" source="CAM8ANXRye3e2D8_DKDB-7" target="CAM8ANXRye3e2D8_DKDB-9">
          <mxGeometry relative="1" as="geometry" />
        </mxCell>
        <mxCell id="CAM8ANXRye3e2D8_DKDB-7" value="Main Service" style="rounded=0;whiteSpace=wrap;html=1;" vertex="1" parent="1">
          <mxGeometry x="270" y="130" width="120" height="60" as="geometry" />
        </mxCell>
        <mxCell id="CAM8ANXRye3e2D8_DKDB-12" value="" style="edgeStyle=orthogonalEdgeStyle;rounded=0;orthogonalLoop=1;jettySize=auto;html=1;entryX=0.5;entryY=0.97;entryDx=0;entryDy=0;entryPerimeter=0;" edge="1" parent="1" source="CAM8ANXRye3e2D8_DKDB-8" target="CAM8ANXRye3e2D8_DKDB-9">
          <mxGeometry relative="1" as="geometry" />
        </mxCell>
        <mxCell id="CAM8ANXRye3e2D8_DKDB-8" value="Secondary Service" style="rounded=0;whiteSpace=wrap;html=1;" vertex="1" parent="1">
          <mxGeometry x="270" y="296.5" width="120" height="60" as="geometry" />
        </mxCell>
        <mxCell id="CAM8ANXRye3e2D8_DKDB-9" value="" style="html=1;verticalLabelPosition=bottom;align=center;labelBackgroundColor=#ffffff;verticalAlign=top;strokeWidth=2;strokeColor=#0080F0;shadow=0;dashed=0;shape=mxgraph.ios7.icons.mail;" vertex="1" parent="1">
          <mxGeometry x="310" y="240" width="40" height="20" as="geometry" />
        </mxCell>
        <mxCell id="CAM8ANXRye3e2D8_DKDB-10" value="RabbitMQ" style="text;html=1;strokeColor=none;fillColor=none;align=center;verticalAlign=middle;whiteSpace=wrap;rounded=0;" vertex="1" parent="1">
          <mxGeometry x="355" y="235" width="60" height="30" as="geometry" />
        </mxCell>
        <mxCell id="CAM8ANXRye3e2D8_DKDB-13" value="PostgrSQL" style="shape=cylinder3;whiteSpace=wrap;html=1;boundedLbl=1;backgroundOutline=1;size=15;" vertex="1" parent="1">
          <mxGeometry x="460" y="123.5" width="60" height="80" as="geometry" />
        </mxCell>
        <mxCell id="CAM8ANXRye3e2D8_DKDB-14" value="MongoDB" style="shape=cylinder3;whiteSpace=wrap;html=1;boundedLbl=1;backgroundOutline=1;size=15;" vertex="1" parent="1">
          <mxGeometry x="460" y="286.5" width="60" height="80" as="geometry" />
        </mxCell>
        <mxCell id="CAM8ANXRye3e2D8_DKDB-16" value="" style="endArrow=classic;startArrow=classic;html=1;rounded=0;entryX=0;entryY=0;entryDx=0;entryDy=52.5;entryPerimeter=0;exitX=1;exitY=0.75;exitDx=0;exitDy=0;" edge="1" parent="1" source="CAM8ANXRye3e2D8_DKDB-7">
          <mxGeometry width="50" height="50" relative="1" as="geometry">
            <mxPoint x="390" y="176.5" as="sourcePoint" />
            <mxPoint x="460" y="173.5" as="targetPoint" />
          </mxGeometry>
        </mxCell>
        <mxCell id="CAM8ANXRye3e2D8_DKDB-17" value="Eureka Server" style="text;html=1;align=center;verticalAlign=middle;resizable=0;points=[];autosize=1;strokeColor=none;fillColor=none;" vertex="1" parent="1">
          <mxGeometry x="90" y="68" width="100" height="30" as="geometry" />
        </mxCell>
        <mxCell id="CAM8ANXRye3e2D8_DKDB-19" value="" style="endArrow=classic;startArrow=classic;html=1;rounded=0;entryX=0;entryY=0;entryDx=0;entryDy=52.5;entryPerimeter=0;exitX=1;exitY=0.75;exitDx=0;exitDy=0;" edge="1" parent="1" source="CAM8ANXRye3e2D8_DKDB-8">
          <mxGeometry width="50" height="50" relative="1" as="geometry">
            <mxPoint x="390" y="342.5" as="sourcePoint" />
            <mxPoint x="460" y="340" as="targetPoint" />
          </mxGeometry>
        </mxCell>
        <mxCell id="CAM8ANXRye3e2D8_DKDB-22" value="" style="endArrow=classic;startArrow=classic;html=1;rounded=0;" edge="1" parent="1" source="CAM8ANXRye3e2D8_DKDB-4" target="CAM8ANXRye3e2D8_DKDB-1">
          <mxGeometry width="50" height="50" relative="1" as="geometry">
            <mxPoint x="390" y="350" as="sourcePoint" />
            <mxPoint x="440" y="300" as="targetPoint" />
          </mxGeometry>
        </mxCell>
      </root>
    </mxGraphModel>
  </diagram>
</mxfile>
